<?xml version="1.0" standalone="no"?>
<!DOCTYPE svg PUBLIC "-//W3C//DTD SVG 20010904//EN"
 "http://www.w3.org/TR/2001/REC-SVG-20010904/DTD/svg10.dtd">
<svg version="1.0" xmlns="http://www.w3.org/2000/svg"
 width="260.000000pt" height="260.000000pt" viewBox="0 0 260.000000 260.000000"
 preserveAspectRatio="xMidYMid meet">
<metadata>
Created by potrace 1.14, written by Peter Selinger 2001-2017
</metadata>
<g transform="translate(0.000000,260.000000) scale(0.100000,-0.100000)"
fill="#000000" stroke="none">
<path d="M0 1300 l0 -1300 1300 0 1300 0 0 1300 0 1300 -1300 0 -1300 0 0
-1300z m410 -690 l0 -410 -122 0 c-119 1 -122 1 -83 15 83 29 88 57 83 445 -4
305 -5 314 -78 342 l-45 17 123 0 122 1 0 -410z m516 390 c-75 -24 -119 -66
-163 -155 l-34 -70 5 85 c3 47 6 102 6 123 l0 37 123 -1 122 0 -59 -19z m214
-339 c0 -228 4 -369 11 -389 9 -27 33 -45 89 -65 8 -3 -66 -5 -165 -5 -149 0
-175 2 -148 11 18 7 43 22 55 35 l23 23 3 374 3 375 64 0 65 0 0 -359z m430
343 c-19 -8 -38 -20 -42 -27 -17 -27 -4 -91 72 -346 44 -148 80 -275 80 -283
0 -22 -54 -150 -64 -151 -5 -1 -60 151 -122 338 -71 213 -124 355 -142 380
-31 45 -73 72 -140 90 -42 12 -25 13 173 14 204 0 218 -1 185 -15z m435 4
c-44 -15 -65 -38 -65 -68 0 -15 38 -154 85 -309 l84 -282 -31 -79 c-17 -44
-34 -80 -37 -80 -3 0 -39 98 -79 218 -164 486 -177 521 -211 556 -18 19 -47
38 -64 44 -24 7 14 10 158 10 145 0 183 -2 160 -10z m425 0 c-14 -6 -42 -17
-63 -26 -46 -19 -98 -77 -134 -150 -14 -29 -27 -51 -29 -50 -1 2 3 38 9 80 14
97 5 120 -55 141 -42 15 -38 15 127 16 127 0 164 -3 145 -11z m-1770 -393 c0
-85 -3 -155 -8 -155 -4 0 -15 23 -25 50 -20 57 -45 77 -119 95 -46 11 -49 13
-20 14 75 2 135 50 148 117 14 76 24 26 24 -121z m134 -299 l-7 -116 -121 1
c-94 1 -113 3 -83 10 99 23 162 90 201 213 13 41 17 3 10 -108z"/>
</g>
</svg>
